<?xml version="1.0" standalone="no"?>
<!DOCTYPE svg PUBLIC "-//W3C//DTD SVG 20010904//EN"
 "http://www.w3.org/TR/2001/REC-SVG-20010904/DTD/svg10.dtd">
<svg version="1.0" xmlns="http://www.w3.org/2000/svg"
 width="32.000000pt" height="32.000000pt" viewBox="0 0 32.000000 32.000000"
 preserveAspectRatio="xMidYMid meet">

<g transform="translate(0.000000,32.000000) scale(0.100000,-0.100000)"
fill="#000000" stroke="none">
<path d="M63 275 c-20 -21 -23 -35 -23 -106 0 -71 -3 -84 -21 -100 -19 -16
-20 -20 -6 -34 22 -21 231 -22 253 -1 10 11 14 41 14 116 0 95 -2 102 -25 126
l-26 26 -18 -21 c-24 -28 -81 -28 -101 -1 -18 25 -20 24 -47 -5z m43 -9 c8 -8
14 -20 14 -26 0 -11 -44 -60 -55 -60 -11 0 -5 71 8 85 15 18 16 18 33 1z m140
0 c13 -14 21 -86 9 -86 -10 0 -55 49 -55 60 0 10 21 39 28 40 2 0 10 -6 18
-14z m-60 -41 c14 -13 14 -17 0 -30 -19 -19 -33 -19 -52 0 -13 12 -13 17 -2
29 17 20 36 20 54 1z m-66 -61 c0 -18 23 -44 40 -44 17 0 40 26 40 44 0 9 5
16 10 16 6 0 10 -9 10 -20 0 -11 -4 -20 -10 -20 -5 0 -10 -4 -10 -10 0 -5 9
-10 20 -10 13 0 20 -7 20 -19 0 -11 6 -21 12 -23 9 -3 8 -9 -4 -21 -18 -19
-48 -23 -48 -7 0 6 9 10 20 10 11 0 20 5 20 10 0 18 -35 11 -50 -10 -8 -11
-21 -20 -30 -20 -9 0 -22 9 -30 20 -15 21 -50 28 -50 10 0 -5 9 -10 20 -10 11
0 20 -4 20 -10 0 -14 -37 -12 -44 3 -5 10 -7 9 -12 0 -7 -15 -44 -17 -44 -3 0
6 7 10 16 10 20 0 44 24 44 44 0 9 8 16 20 16 11 0 20 5 20 10 0 6 -4 10 -10
10 -5 0 -10 9 -10 20 0 11 5 20 10 20 6 0 10 -7 10 -16z"/>
</g>
</svg>
